<svg width="70" height="60" viewBox="0 0 70 60" fill="none" xmlns="http://www.w3.org/2000/svg">
<path d="M67.2449 34.2443C67.2449 47.0996 56.5074 57.4138 43.4013 57.4138C30.2952 57.4138 19.5578 47.0996 19.5578 34.2443C19.5578 21.389 30.2952 11.0749 43.4013 11.0749C56.5074 11.0749 67.2449 21.389 67.2449 34.2443Z" stroke="#6462DB" stroke-width="3"/>
<path d="M38.8608 29.3C38.8608 31.811 36.7649 33.817 34.2177 33.817C31.6704 33.817 29.5746 31.811 29.5746 29.3C29.5746 26.7892 31.6704 24.7831 34.2177 24.7831C36.7649 24.7831 38.8608 26.7892 38.8608 29.3Z" fill="#6462DB" stroke="#6462DB" stroke-width="0.826042"/>
<path d="M56.2078 29.3C56.2078 31.811 54.1118 33.817 51.5647 33.817C49.0174 33.817 46.9214 31.811 46.9214 29.3C46.9214 26.7892 49.0174 24.7831 51.5647 24.7831C54.1118 24.7831 56.2078 26.7892 56.2078 29.3Z" fill="#6462DB" stroke="#6462DB" stroke-width="0.826042"/>
<path d="M5.14196 20.703C3.14085 19.9534 2.11097 17.881 2.79693 16.0926C3.48291 14.3041 5.644 13.4271 7.64512 14.1768C8.69736 14.571 11.105 15.929 13.1608 17.4514C14.1861 18.2107 15.0972 18.9915 15.6998 19.693C16.0016 20.0443 16.2102 20.3577 16.3226 20.6235C16.435 20.8895 16.4346 21.0666 16.3893 21.1845C16.3441 21.3026 16.2256 21.4354 15.963 21.5609C15.7006 21.6862 15.3342 21.7843 14.8726 21.8496C13.951 21.98 12.7451 21.9678 11.4681 21.8647C8.90773 21.6577 6.19419 21.0972 5.14196 20.703Z" fill="#6462DB" stroke="#6462DB" stroke-width="0.826042"/>
<path d="M12.8187 7.08659C11.8894 5.19556 12.6679 3.07059 14.4519 2.30167C16.2359 1.53274 18.4657 2.36115 19.3949 4.25218C19.8796 5.23848 20.6521 7.80641 21.0467 10.2494C21.2434 11.4683 21.341 12.626 21.2702 13.5207C21.2347 13.9691 21.1586 14.328 21.0468 14.5883C20.9344 14.8497 20.8072 14.9659 20.698 15.0129C20.5889 15.06 20.4119 15.075 20.1268 14.9848C19.843 14.895 19.5024 14.7157 19.1157 14.4494C18.344 13.9177 17.4684 13.0953 16.608 12.1625C14.8834 10.2928 13.3033 8.07288 12.8187 7.08659Z" fill="#6462DB" stroke="#6462DB" stroke-width="0.826042"/>
<path d="M40.9163 40.9188V46.3262H43.8203C44.2182 46.3262 44.5927 46.2571 44.9434 46.119C45.2942 45.9745 45.6011 45.7798 45.8642 45.5349C46.1272 45.2899 46.333 45.0042 46.4814 44.6776C46.6366 44.3447 46.7141 43.993 46.7141 43.6226C46.7141 43.252 46.6366 42.9034 46.4814 42.5768C46.333 42.244 46.1272 41.9551 45.8642 41.7101C45.6011 41.4652 45.2942 41.2737 44.9434 41.1356C44.5927 40.991 44.2182 40.9188 43.8203 40.9188H40.9163ZM40.9163 51.7241H38.0125V38.2152H43.8203C44.3532 38.2152 44.8659 38.2811 45.3582 38.413C45.8507 38.5386 46.3093 38.7208 46.7343 38.9594C47.1661 39.1918 47.5573 39.4744 47.9081 39.8072C48.2656 40.1338 48.5691 40.4981 48.8187 40.9C49.075 41.3019 49.2707 41.7321 49.4056 42.1906C49.5472 42.6491 49.618 43.1264 49.618 43.6226C49.618 44.3636 49.4663 45.0638 49.1628 45.7233C48.8592 46.3765 48.4443 46.9479 47.9182 47.4378C47.392 47.9277 46.7748 48.3139 46.0666 48.5966C45.365 48.8792 44.6162 49.0205 43.8203 49.0205H40.9163V51.7241Z" fill="#9B9D24"/>
</svg>
