<svg width="50" height="50" viewBox="0 0 50 50" fill="none" xmlns="http://www.w3.org/2000/svg">
<path d="M48.2793 24.7493C48.2793 37.3525 37.7524 47.4645 24.9033 47.4645C12.0541 47.4645 1.52724 37.3525 1.52724 24.7493C1.52724 12.146 12.0541 2.03418 24.9033 2.03418C37.7524 2.03418 48.2793 12.146 48.2793 24.7493Z" stroke="#4A4A4A" stroke-width="3"/>
<path d="M20.4517 19.902C20.4517 22.3638 18.3969 24.3304 15.8997 24.3304C13.4024 24.3304 11.3476 22.3638 11.3476 19.902C11.3476 17.4404 13.4024 15.4736 15.8997 15.4736C18.3969 15.4736 20.4517 17.4404 20.4517 19.902Z" fill="#4A4A4A" stroke="#4A4A4A" stroke-width="0.826042"/>
<path d="M37.4586 19.902C37.4586 22.3638 35.4037 24.3304 32.9065 24.3304C30.4093 24.3304 28.3544 22.3638 28.3544 19.902C28.3544 17.4404 30.4093 15.4736 32.9065 15.4736C35.4037 15.4736 37.4586 17.4404 37.4586 19.902Z" fill="#4A4A4A" stroke="#4A4A4A" stroke-width="0.826042"/>
<path d="M22.467 31.293V36.5943H25.314C25.7041 36.5943 26.0712 36.5266 26.4151 36.3912C26.759 36.2495 27.0599 36.0586 27.3179 35.8186C27.5757 35.5784 27.7774 35.2983 27.923 34.9781C28.075 34.6517 28.1511 34.3069 28.1511 33.9437C28.1511 33.5804 28.075 33.2386 27.923 32.9185C27.7774 32.5922 27.5757 32.3089 27.3179 32.0688C27.0599 31.8287 26.759 31.6409 26.4151 31.5055C26.0712 31.3638 25.7041 31.293 25.314 31.293H22.467ZM22.467 41.8864H19.62V28.6424H25.314C25.8365 28.6424 26.3391 28.707 26.8218 28.8363C27.3046 28.9594 27.7542 29.138 28.1709 29.372C28.5942 29.5998 28.9778 29.8769 29.3217 30.2031C29.6721 30.5233 29.9697 30.8805 30.2144 31.2745C30.4657 31.6686 30.6575 32.0904 30.7898 32.5399C30.9286 32.9894 30.998 33.4573 30.998 33.9437C30.998 34.6702 30.8493 35.3567 30.5517 36.0032C30.2541 36.6436 29.8474 37.2039 29.3316 37.6842C28.8157 38.1644 28.2106 38.5431 27.5162 38.8202C26.8284 39.0973 26.0943 39.2358 25.314 39.2358H22.467V41.8864Z" fill="#4A4A4A"/>
</svg>
