<svg width="305" height="60" viewBox="0 0 305 60" fill="none" xmlns="http://www.w3.org/2000/svg">
<g clip-path="url(#clip0)">
<path d="M83.6355 20.3458V40.1902H89.8762C90.7315 40.1902 91.536 39.9366 92.2899 39.4296C93.0436 38.8994 93.7033 38.185 94.2687 37.286C94.834 36.3873 95.2761 35.3385 95.595 34.1402C95.9285 32.9185 96.0951 31.6278 96.0951 30.268C96.0951 28.9082 95.9285 27.629 95.595 26.4305C95.2761 25.209 94.834 24.1487 94.2687 23.2499C93.7033 22.351 93.0436 21.648 92.2899 21.141C91.536 20.6109 90.7315 20.3458 89.8762 20.3458H83.6355ZM83.6355 60H77.3948V10.4236H89.8762C91.0214 10.4236 92.1231 10.6656 93.1813 11.1497C94.2396 11.6106 95.2254 12.279 96.1387 13.1548C97.0664 14.0076 97.9072 15.0448 98.6611 16.2663C99.4293 17.4648 100.082 18.8016 100.618 20.2767C101.169 21.7518 101.589 23.3305 101.879 25.013C102.184 26.6956 102.336 28.4473 102.336 30.268C102.336 32.9877 102.01 35.5575 101.357 37.9777C100.705 40.3746 99.8136 42.4719 98.6828 44.2696C97.5521 46.0675 96.2256 47.485 94.7036 48.5221C93.1958 49.5593 91.5868 50.0778 89.8762 50.0778H83.6355V60ZM142.259 20.3458V40.1902H148.5C149.355 40.1902 150.16 39.9366 150.913 39.4296C151.667 38.8994 152.327 38.185 152.892 37.286C153.457 36.3873 153.9 35.3385 154.219 34.1402C154.552 32.9185 154.719 31.6278 154.719 30.268C154.719 28.9082 154.552 27.629 154.219 26.4305C153.9 25.209 153.457 24.1487 152.892 23.2499C152.327 22.351 151.667 21.648 150.913 21.141C150.16 20.6109 149.355 20.3458 148.5 20.3458H142.259ZM142.259 60H136.018V10.4236H148.5C149.645 10.4236 150.747 10.6656 151.805 11.1497C152.863 11.6106 153.849 12.279 154.762 13.1548C155.69 14.0076 156.531 15.0448 157.285 16.2663C158.053 17.4648 158.705 18.8016 159.242 20.2767C159.792 21.7518 160.213 23.3305 160.503 25.013C160.807 26.6956 160.959 28.4473 160.959 30.268C160.959 32.9877 160.633 35.5575 159.981 37.9777C159.329 40.3746 158.437 42.4719 157.306 44.2696C156.176 46.0675 154.849 47.485 153.327 48.5221C151.819 49.5593 150.21 50.0778 148.5 50.0778H142.259V60Z" fill="#9B9D24"/>
<path d="M124.363 40.1902V30.268C124.363 28.9082 124.196 27.629 123.862 26.4305C123.543 25.209 123.101 24.1487 122.536 23.2499C121.971 22.351 121.304 21.648 120.535 21.141C119.782 20.6109 118.977 20.3458 118.122 20.3458C117.267 20.3458 116.455 20.6109 115.686 21.141C114.933 21.648 114.273 22.351 113.708 23.2499C113.142 24.1487 112.693 25.209 112.359 26.4305C112.041 27.629 111.881 28.9082 111.881 30.268V40.1902H124.363ZM130.603 60H124.363V50.0778H111.881V60H105.662V30.268C105.662 27.5253 105.988 24.9554 106.641 22.5584C107.293 20.1384 108.177 18.0295 109.294 16.2317C110.424 14.434 111.743 13.0165 113.251 11.9794C114.773 10.9422 116.397 10.4236 118.122 10.4236C119.847 10.4236 121.463 10.9422 122.971 11.9794C124.493 13.0165 125.819 14.434 126.95 16.2317C128.081 18.0295 128.972 20.1384 129.625 22.5584C130.277 24.9554 130.603 27.5253 130.603 30.268V60ZM182.986 40.1902V30.268C182.986 28.9082 182.819 27.629 182.486 26.4305C182.167 25.209 181.725 24.1487 181.159 23.2499C180.594 22.351 179.927 21.648 179.159 21.141C178.405 20.6109 177.601 20.3458 176.745 20.3458C175.89 20.3458 175.078 20.6109 174.31 21.141C173.556 21.648 172.897 22.351 172.331 23.2499C171.766 24.1487 171.316 25.209 170.983 26.4305C170.664 27.629 170.505 28.9082 170.505 30.268V40.1902H182.986ZM189.226 60H182.986V50.0778H170.505V60H164.286V30.268C164.286 27.5253 164.612 24.9554 165.264 22.5584C165.916 20.1384 166.801 18.0295 167.917 16.2317C169.048 14.434 170.367 13.0165 171.875 11.9794C173.397 10.9422 175.02 10.4236 176.745 10.4236C178.47 10.4236 180.087 10.9422 181.594 11.9794C183.117 13.0165 184.443 14.434 185.574 16.2317C186.704 18.0295 187.596 20.1384 188.248 22.5584C188.901 24.9554 189.226 27.5253 189.226 30.268V60ZM219.626 35.2118C219.626 37.4935 219.437 39.6946 219.061 41.8152C218.698 43.9125 218.176 45.883 217.495 47.7269C216.813 49.5477 216.001 51.2187 215.059 52.7398C214.117 54.238 213.067 55.5287 211.906 56.6119C210.747 57.6952 209.501 58.5364 208.166 59.1357C206.848 59.7119 205.47 60 204.035 60H194.641V10.4236H204.035C205.47 10.4236 206.848 10.7233 208.166 11.3225C209.501 11.8987 210.747 12.7284 211.906 13.8117C213.067 14.895 214.117 16.1972 215.059 17.7184C216.001 19.2165 216.813 20.8875 217.495 22.7313C218.176 24.5521 218.698 26.5227 219.061 28.6432C219.437 30.7405 219.626 32.93 219.626 35.2118ZM213.385 35.2118C213.385 33.1605 213.138 31.236 212.645 29.4382C212.167 27.6405 211.501 26.0733 210.645 24.7365C209.805 23.3766 208.811 22.3049 207.666 21.5213C206.535 20.7376 205.325 20.3458 204.035 20.3458H200.925V50.0778H204.035C205.325 50.0778 206.535 49.6975 207.666 48.9369C208.811 48.1534 209.805 47.093 210.645 45.7562C211.501 44.3964 212.167 42.8177 212.645 41.02C213.138 39.1991 213.385 37.263 213.385 35.2118ZM242.131 40.1902V30.268C242.131 28.9082 241.965 27.629 241.632 26.4305C241.313 25.209 240.87 24.1487 240.305 23.2499C239.739 22.351 239.073 21.648 238.305 21.141C237.55 20.6109 236.746 20.3458 235.891 20.3458C235.035 20.3458 234.223 20.6109 233.455 21.141C232.701 21.648 232.042 22.351 231.476 23.2499C230.911 24.1487 230.462 25.209 230.128 26.4305C229.809 27.629 229.65 28.9082 229.65 30.268V40.1902H242.131ZM248.372 60H242.131V50.0778H229.65V60H223.431V30.268C223.431 27.5253 223.757 24.9554 224.409 22.5584C225.062 20.1384 225.946 18.0295 227.062 16.2317C228.193 14.434 229.512 13.0165 231.02 11.9794C232.542 10.9422 234.166 10.4236 235.891 10.4236C237.615 10.4236 239.233 10.9422 240.74 11.9794C242.262 13.0165 243.588 14.434 244.719 16.2317C245.85 18.0295 246.741 20.1384 247.393 22.5584C248.046 24.9554 248.372 27.5253 248.372 30.268V60ZM267.464 60H261.245V44.4771C259.868 43.9239 258.599 43.0366 257.44 41.8152C256.294 40.5935 255.308 39.1416 254.483 37.4591C253.656 35.7534 253.011 33.875 252.548 31.8237C252.097 29.7494 251.873 27.5714 251.873 25.2896V10.4236H258.114V25.2896C258.114 26.6495 258.273 27.9402 258.592 29.1618C258.926 30.3602 259.375 31.4089 259.94 32.3078C260.505 33.2066 261.166 33.921 261.919 34.4512C262.687 34.9584 263.499 35.2118 264.354 35.2118C265.21 35.2118 266.014 34.9584 266.768 34.4512C267.536 33.921 268.203 33.2066 268.768 32.3078C269.334 31.4089 269.776 30.3602 270.095 29.1618C270.428 27.9402 270.596 26.6495 270.596 25.2896V10.4236H276.814V25.2896C276.814 27.5714 276.582 29.7494 276.118 31.8237C275.669 33.875 275.031 35.7534 274.204 37.4591C273.379 39.1416 272.393 40.5935 271.247 41.8152C270.102 43.0366 268.841 43.9239 267.464 44.4771V60ZM279.228 25.2896C279.228 23.2384 279.474 21.3139 279.967 19.5161C280.46 17.7184 281.127 16.1511 281.967 14.8143C282.823 13.4545 283.816 12.3827 284.946 11.5991C286.077 10.8155 287.288 10.4236 288.578 10.4236H302.886V20.3458H288.578C288.143 20.3458 287.737 20.4726 287.36 20.7261C286.983 20.9797 286.65 21.3369 286.36 21.7979C286.085 22.2358 285.867 22.7544 285.708 23.3536C285.548 23.9529 285.468 24.5982 285.468 25.2896C285.468 25.9811 285.548 26.6379 285.708 27.2602C285.867 27.8594 286.085 28.3896 286.36 28.8505C286.65 29.2885 286.983 29.6343 287.36 29.8877C287.737 30.1412 288.143 30.268 288.578 30.268H294.819C296.109 30.268 297.32 30.6598 298.45 31.4434C299.595 32.2041 300.588 33.2643 301.429 34.6241C302.284 35.9609 302.951 37.5396 303.43 39.3605C303.923 41.1582 304.169 43.0827 304.169 45.1339C304.169 47.1853 303.923 49.1098 303.43 50.9075C302.951 52.7053 302.284 54.2841 301.429 55.6439C300.588 56.9807 299.595 58.0409 298.45 58.8244C297.32 59.6082 296.109 60 294.819 60H280.968V50.0778H294.819C295.253 50.0778 295.66 49.951 296.036 49.6975C296.413 49.4439 296.739 49.0982 297.014 48.6603C297.305 48.1994 297.53 47.6693 297.689 47.07C297.849 46.4707 297.929 45.8255 297.929 45.1339C297.929 44.4425 297.849 43.7971 297.689 43.198C297.53 42.5987 297.305 42.0802 297.014 41.6423C296.739 41.1812 296.413 40.8241 296.036 40.5705C295.66 40.3169 295.253 40.1902 294.819 40.1902H288.578C287.288 40.1902 286.077 39.7984 284.946 39.0148C283.816 38.231 282.823 37.1709 281.967 35.8341C281.127 34.4743 280.46 32.8955 279.967 31.0977C279.474 29.2769 279.228 27.3409 279.228 25.2896Z" fill="#6462DB"/>
</g>
<path d="M67.2449 34.2443C67.2449 47.0996 56.5074 57.4138 43.4013 57.4138C30.2952 57.4138 19.5578 47.0996 19.5578 34.2443C19.5578 21.389 30.2952 11.0749 43.4013 11.0749C56.5074 11.0749 67.2449 21.389 67.2449 34.2443Z" stroke="#6462DB" stroke-width="3"/>
<path d="M38.8608 29.3C38.8608 31.811 36.7649 33.817 34.2177 33.817C31.6704 33.817 29.5746 31.811 29.5746 29.3C29.5746 26.7892 31.6704 24.7831 34.2177 24.7831C36.7649 24.7831 38.8608 26.7892 38.8608 29.3Z" fill="#6462DB" stroke="#6462DB" stroke-width="0.826042"/>
<path d="M56.2078 29.3C56.2078 31.811 54.1118 33.817 51.5647 33.817C49.0174 33.817 46.9214 31.811 46.9214 29.3C46.9214 26.7892 49.0174 24.7831 51.5647 24.7831C54.1118 24.7831 56.2078 26.7892 56.2078 29.3Z" fill="#6462DB" stroke="#6462DB" stroke-width="0.826042"/>
<path d="M5.14196 20.703C3.14085 19.9534 2.11097 17.881 2.79693 16.0926C3.48291 14.3041 5.644 13.4271 7.64512 14.1768C8.69736 14.571 11.105 15.929 13.1608 17.4514C14.1861 18.2107 15.0972 18.9915 15.6998 19.693C16.0016 20.0443 16.2102 20.3577 16.3226 20.6235C16.435 20.8895 16.4346 21.0666 16.3893 21.1845C16.3441 21.3026 16.2256 21.4354 15.963 21.5609C15.7006 21.6862 15.3342 21.7843 14.8726 21.8496C13.951 21.98 12.7451 21.9678 11.4681 21.8647C8.90773 21.6577 6.19419 21.0972 5.14196 20.703Z" fill="#6462DB" stroke="#6462DB" stroke-width="0.826042"/>
<path d="M12.8187 7.08659C11.8894 5.19556 12.6679 3.07059 14.4519 2.30167C16.2359 1.53274 18.4657 2.36115 19.3949 4.25218C19.8796 5.23848 20.6521 7.80641 21.0467 10.2494C21.2434 11.4683 21.341 12.626 21.2702 13.5207C21.2347 13.9691 21.1586 14.328 21.0468 14.5883C20.9344 14.8497 20.8072 14.9659 20.698 15.0129C20.5889 15.06 20.4119 15.075 20.1268 14.9848C19.843 14.895 19.5024 14.7157 19.1157 14.4494C18.344 13.9177 17.4684 13.0953 16.608 12.1625C14.8834 10.2928 13.3033 8.07288 12.8187 7.08659Z" fill="#6462DB" stroke="#6462DB" stroke-width="0.826042"/>
<path d="M40.9163 40.9188V46.3262H43.8203C44.2182 46.3262 44.5927 46.2571 44.9434 46.119C45.2942 45.9745 45.6011 45.7798 45.8642 45.5349C46.1272 45.2899 46.333 45.0042 46.4814 44.6776C46.6366 44.3447 46.7141 43.993 46.7141 43.6226C46.7141 43.252 46.6366 42.9034 46.4814 42.5768C46.333 42.244 46.1272 41.9551 45.8642 41.7101C45.6011 41.4652 45.2942 41.2737 44.9434 41.1356C44.5927 40.991 44.2182 40.9188 43.8203 40.9188H40.9163ZM40.9163 51.7241H38.0125V38.2152H43.8203C44.3532 38.2152 44.8659 38.2811 45.3582 38.413C45.8507 38.5386 46.3093 38.7208 46.7343 38.9594C47.1661 39.1918 47.5573 39.4744 47.9081 39.8072C48.2656 40.1338 48.5691 40.4981 48.8187 40.9C49.075 41.3019 49.2707 41.7321 49.4056 42.1906C49.5472 42.6491 49.618 43.1264 49.618 43.6226C49.618 44.3636 49.4663 45.0638 49.1628 45.7233C48.8592 46.3765 48.4443 46.9479 47.9182 47.4378C47.392 47.9277 46.7748 48.3139 46.0666 48.5966C45.365 48.8792 44.6162 49.0205 43.8203 49.0205H40.9163V51.7241Z" fill="#9B9D24"/>
<defs>
<clipPath id="clip0">
<rect width="228" height="50" fill="white" transform="translate(76.7484 10)"/>
</clipPath>
</defs>
</svg>
